<svg xmlns="http://www.w3.org/2000/svg"
     width="0.768in" height="0.24in"
     viewBox="0 0 128 40">
  <path id="Unnamed"
        fill="none" stroke="darkturquoise" stroke-width="2"
        d="M 60.88,11.36
           C 60.88,11.36 43.88,19.47 43.88,19.47
             43.88,19.47 32.18,25.76 21.63,26.48
             11.09,27.21 8.63,24.98 5.07,22.17
             5.07,21.98 8.57,14.30 8.57,14.30
             8.57,14.30 11.76,16.88 15.82,15.05
             18.01,13.94 18.69,11.11 17.01,8.48
             15.63,6.55 14.32,6.30 11.32,6.61
             6.38,7.55 2.38,12.18 2.38,18.36
             2.38,24.54 6.97,31.10 17.88,32.92
             28.78,34.74 48.66,27.83 60.66,22.56
             60.88,22.61 62.88,23.17 62.88,23.17
             62.88,23.17 63.88,21.10 63.88,21.10
             63.88,21.10 81.01,14.42 80.88,14.42
             90.19,11.17 95.44,9.73 104.19,9.55
             113.69,9.92 119.82,12.67 122.94,15.92
             123.07,16.17 117.69,24.92 117.69,24.92
             117.69,24.92 111.88,21.10 107.88,24.73
             105.51,27.17 104.07,32.67 109.69,36.80
             116.88,39.23 122.75,34.68 124.57,26.86
             125.51,20.23 126.26,13.86 119.63,8.05
             111.44,0.92 97.60,0.05 82.51,4.23
             67.41,8.41 70.38,7.80 64.26,10.05
             64.32,10.17 62.01,9.41 62.01,9.23
             62.01,9.05 60.88,11.36 60.88,11.36 Z" />
</svg>
